<?xml version="1.0" encoding="UTF-8"?>
<svg xmlns="http://www.w3.org/2000/svg" width="560" height="168" viewBox="0 0 560 168" role="img" aria-label="FOCUS.STACK">
<defs>
  <linearGradient id="gDF" x1="0" y1="0" x2="1" y2="1">
    <stop offset="0" stop-color="#161b22"/><stop offset="1" stop-color="#0d1117"/>
  </linearGradient>
</defs>
<rect x="1" y="1" width="558" height="166" rx="12" fill="url(#gDF)" stroke="rgba(254,112,45,0.40)" stroke-width="1.2"/>
<rect x="1" y="1" width="558" height="36" rx="12" fill="#12171f"/>
<rect x="1" y="20" width="558" height="17" fill="#12171f"/>
<circle cx="18" cy="18" r="4" fill="#FF5F56"/><circle cx="34" cy="18" r="4" fill="#FFBD2E"/><circle cx="50" cy="18" r="4" fill="#27C93F"/>
<text x="68" y="22" font-family="ui-monospace,Menlo,monospace" font-size="11" font-weight="700" fill="#fe702d">FOCUS.STACK</text>
<text x="18" y="52" font-family="ui-sans-serif,system-ui,sans-serif" font-size="12" fill="#94A3B8">What I ship in production</text>
<rect x="18.0" y="62.0" width="86" height="26" rx="13" fill="rgba(254,112,45,0.18)" stroke="rgba(254,112,45,0.40)" stroke-width="1"/><text x="61.0" y="79.0" text-anchor="middle" font-size="11" font-weight="600" fill="#fb923c">Python</text><rect x="112.0" y="62.0" width="108" height="26" rx="13" fill="rgba(254,112,45,0.18)" stroke="rgba(254,112,45,0.40)" stroke-width="1"/><text x="166.0" y="79.0" text-anchor="middle" font-size="11" font-weight="600" fill="#fb923c">TypeScript</text><rect x="228.0" y="62.0" width="78" height="26" rx="13" fill="rgba(254,112,45,0.18)" stroke="rgba(254,112,45,0.40)" stroke-width="1"/><text x="267.0" y="79.0" text-anchor="middle" font-size="11" font-weight="600" fill="#fb923c">React</text><rect x="314.0" y="62.0" width="112" height="26" rx="13" fill="rgba(254,112,45,0.18)" stroke="rgba(254,112,45,0.40)" stroke-width="1"/><text x="370.0" y="79.0" text-anchor="middle" font-size="11" font-weight="600" fill="#fb923c">PostgreSQL</text><rect x="18.0" y="96.0" width="132" height="26" rx="13" fill="rgba(254,112,45,0.18)" stroke="rgba(254,112,45,0.40)" stroke-width="1"/><text x="84.0" y="113.0" text-anchor="middle" font-size="11" font-weight="600" fill="#fb923c">Azure / Sentinel</text><rect x="158.0" y="96.0" width="100" height="26" rx="13" fill="rgba(254,112,45,0.18)" stroke="rgba(254,112,45,0.40)" stroke-width="1"/><text x="208.0" y="113.0" text-anchor="middle" font-size="11" font-weight="600" fill="#fb923c">n8n · LLMs</text>
<text x="18" y="154" font-family="ui-sans-serif,system-ui,sans-serif" font-size="11" fill="#64748B">Full Stack · Cloud Security · AI systems · Turin</text>
</svg>
