<?xml version="1.0" encoding="UTF-8"?>
<svg xmlns="http://www.w3.org/2000/svg" xmlns:xlink="http://www.w3.org/1999/xlink" viewBox="0 0 960 709" width="960" height="709" preserveAspectRatio="xMidYMid meet" font-family="ui-sans-serif,system-ui,-apple-system,Segoe UI,Roboto,sans-serif" role="img" aria-label="About Miguel Granados">
<defs>
<linearGradient id="bgL960" x1="0" y1="0" x2="1" y2="1">
  <stop offset="0" stop-color="#FFF8F2"/><stop offset="1" stop-color="#F1F5F9"/>
</linearGradient>
<radialGradient id="glowL960" cx="10%" cy="8%" r="50%">
  <stop offset="0" stop-color="#fe702d" stop-opacity="0.14"/><stop offset="1" stop-color="#fe702d" stop-opacity="0"/>
</radialGradient>
<linearGradient id="ruleL960" x1="0" y1="0" x2="1" y2="0">
  <stop offset="0" stop-color="#fe702d"/><stop offset="0.6" stop-color="#fbbf24"/><stop offset="1" stop-color="#fbbf24" stop-opacity="0.15"/>
</linearGradient>
<clipPath id="winL960"><rect x="2" y="2" width="956" height="705" rx="18"/></clipPath>
</defs>
<rect x="2" y="2" width="956" height="705" rx="18" fill="#FFFFFF"/>
<g clip-path="url(#winL960)">
<rect x="2" y="2" width="956" height="705" fill="url(#bgL960)"/>
<rect x="2" y="2" width="956" height="705" fill="url(#glowL960)"/>
<rect x="2" y="2" width="956" height="42" fill="#EEF2FF" fill-opacity="0.85"/>
<circle cx="28" cy="23" r="5" fill="#FF5F56"/>
<circle cx="48" cy="23" r="5" fill="#FFBD2E"/>
<circle cx="68" cy="23" r="5" fill="#27C93F"/>
<text x="480" y="27" text-anchor="middle" font-size="12" font-family="ui-monospace,SFMono-Regular,Menlo,Consolas,monospace" fill="#64748B">miguel@ulamander — about.sh</text>
<text x="48" y="86" font-size="11" letter-spacing="2.5" font-weight="700" fill="#C2410C">ABOUT ME</text>
<text x="48" y="120.0" font-size="24" fill="#0F172A" font-weight="800">Founder &amp; CEO of Ulamander — AI Development Technician &amp; Full</text>
<text x="48" y="151.0" font-size="24" fill="#0F172A" font-weight="800">Stack Engineer.</text>
<text x="48" y="179.0" font-size="15.5" fill="#475569">IT professional specialised in AI, cloud and cybersecurity — from secure infrastructure to AI agents</text>
<text x="48" y="201.5" font-size="15.5" fill="#475569">and workflow automation.</text>
<rect x="48" y="225.5" width="864" height="78" rx="10" fill="#FFF4EC"/>
<rect x="48" y="225.5" width="4" height="78" rx="2" fill="#fe702d"/>
<text x="74" y="260.5" font-size="17" fill="#0F172A" font-style="italic">I turn complex processes into intelligent AI-driven systems.</text>
<text x="74" y="285.5" font-size="15" fill="#475569">I design and ship frontend, backend, cloud, automations and AI systems to production.</text>
<rect x="48.0" y="319.5" width="278.7" height="72" rx="12" fill="#FFFFFF" stroke="rgba(234,88,12,0.28)"/>
<text x="64.0" y="357.5" font-size="26" font-weight="800" fill="#C2410C">15</text>
<text x="64.0" y="377.5" font-size="13" fill="#475569">Microsoft Learn level</text>
<rect x="340.7" y="319.5" width="278.7" height="72" rx="12" fill="#FFFFFF" stroke="rgba(234,88,12,0.28)"/>
<text x="356.7" y="357.5" font-size="26" font-weight="800" fill="#C2410C">99</text>
<text x="356.7" y="377.5" font-size="13" fill="#475569">verified badges &amp; certifications</text>
<rect x="633.3" y="319.5" width="278.7" height="72" rx="12" fill="#FFFFFF" stroke="rgba(234,88,12,0.28)"/>
<text x="649.3" y="357.5" font-size="26" font-weight="800" fill="#C2410C">4</text>
<text x="649.3" y="377.5" font-size="13" fill="#475569">products live in production</text>
<text x="48" y="431.5" font-size="11" letter-spacing="2.5" font-weight="700" fill="#C2410C">HOW I DELIVER</text>
<rect x="48.0" y="447.5" width="422.0" height="88" rx="12" fill="#FFFFFF" stroke="rgba(234,88,12,0.28)" stroke-width="1.2"/>
<rect x="66.0" y="467.5" width="8" height="8" rx="2" fill="#fe702d" transform="rotate(45 70.0 471.5)"/>
<text x="84.0" y="476.5" font-size="15" font-weight="700" fill="#0F172A">I ship real systems</text>
<text x="66.0" y="501.5" font-size="13.5" fill="#475569">Not just prototypes: Web, App, Neural, CRM and</text>
<text x="66.0" y="520.5" font-size="13.5" fill="#475569">corporate mail already in production.</text>
<rect x="490.0" y="447.5" width="422.0" height="88" rx="12" fill="#FFFFFF" stroke="rgba(234,88,12,0.28)" stroke-width="1.2"/>
<rect x="508.0" y="467.5" width="8" height="8" rx="2" fill="#fe702d" transform="rotate(45 512.0 471.5)"/>
<text x="526.0" y="476.5" font-size="15" font-weight="700" fill="#0F172A">Full Stack + AI</text>
<text x="508.0" y="501.5" font-size="13.5" fill="#475569">React/TypeScript, Node, Postgres, local LLMs</text>
<text x="508.0" y="520.5" font-size="13.5" fill="#475569">(Ollama) and n8n agents in one delivery flow.</text>
<rect x="48.0" y="555.5" width="422.0" height="88" rx="12" fill="#FFFFFF" stroke="rgba(234,88,12,0.28)" stroke-width="1.2"/>
<rect x="66.0" y="575.5" width="8" height="8" rx="2" fill="#fe702d" transform="rotate(45 70.0 579.5)"/>
<text x="84.0" y="584.5" font-size="15" font-weight="700" fill="#0F172A">Security-first mindset</text>
<text x="66.0" y="609.5" font-size="13.5" fill="#475569">Azure/Sentinel, Fortinet, DNS/SPF/DKIM and</text>
<text x="66.0" y="628.5" font-size="13.5" fill="#475569">operational hardening on the stack.</text>
<rect x="490.0" y="555.5" width="422.0" height="88" rx="12" fill="#FFFFFF" stroke="rgba(234,88,12,0.28)" stroke-width="1.2"/>
<rect x="508.0" y="575.5" width="8" height="8" rx="2" fill="#fe702d" transform="rotate(45 512.0 579.5)"/>
<text x="526.0" y="584.5" font-size="15" font-weight="700" fill="#0F172A">One end-to-end owner</text>
<text x="508.0" y="609.5" font-size="13.5" fill="#475569">From idea to deploy (UI, API, cloud, mail, tunnel)</text>
<text x="508.0" y="628.5" font-size="13.5" fill="#475569">without splitting the project.</text>
<circle cx="54" cy="676.5" r="4" fill="#fbbf24"/>
<text x="68" y="681.5" font-size="13" fill="#64748B">Turin, Italy — remote &amp; on-site · reply within 24 hours</text>
</g>
<rect x="2.5" y="2.5" width="955" height="704" rx="17.5" fill="none" stroke="rgba(234,88,12,0.28)" stroke-opacity="0.6"/>
</svg>
